<svg xmlns="http://www.w3.org/2000/svg" xmlns:xlink="http://www.w3.org/1999/xlink" width="200" zoomAndPan="magnify" viewBox="0 0 150 149.999998" height="200" preserveAspectRatio="xMidYMid meet" version="1.0"><defs><g/></defs><rect x="-15" width="180" fill="#ffffff" y="-15" height="179.999997" fill-opacity="1"/><rect x="-15" width="180" fill="#0c0e0f" y="-15" height="179.999997" fill-opacity="1"/><g fill="#ffffff" fill-opacity="1"><g transform="translate(24.427317, 71.15607)"><g><path d="M 1.5625 0 L 1.5625 -36.296875 L 15.296875 -36.296875 L 15.296875 -30.796875 L 8.09375 -30.796875 L 8.09375 -19.546875 L 13.21875 -19.546875 L 13.21875 -14.046875 L 8.09375 -14.046875 L 8.09375 -5.5 L 15.296875 -5.5 L 15.296875 0 Z M 1.5625 0 "/></g></g></g><g fill="#ffffff" fill-opacity="1"><g transform="translate(40.502875, 71.15607)"><g><path d="M 1.5625 0 L 1.5625 -36.296875 L 9.859375 -36.296875 L 12.390625 -20.125 L 14.9375 -36.296875 L 23.234375 -36.296875 L 23.234375 0 L 16.703125 0 L 16.703125 -20.0625 L 14.109375 0 L 10.625 0 L 8.09375 -20.0625 L 8.09375 0 Z M 1.5625 0 "/></g></g></g><g fill="#ffffff" fill-opacity="1"><g transform="translate(24.427317, 110.04255)"><g><path d="M 1.5625 0 L 1.5625 -36.296875 L 11.609375 -36.296875 C 13.066406 -36.296875 14.296875 -35.796875 15.296875 -34.796875 C 16.296875 -33.796875 16.796875 -32.566406 16.796875 -31.109375 L 16.796875 -15.65625 C 16.796875 -14.6875 16.523438 -13.8125 15.984375 -13.03125 C 15.453125 -12.257812 14.773438 -11.6875 13.953125 -11.3125 C 14.773438 -10.925781 15.453125 -10.351562 15.984375 -9.59375 C 16.523438 -8.832031 16.796875 -7.96875 16.796875 -7 L 16.796875 -5.1875 C 16.796875 -3.738281 16.296875 -2.507812 15.296875 -1.5 C 14.296875 -0.5 13.066406 0 11.609375 0 Z M 8.09375 -5.5 L 9.171875 -5.5 C 9.898438 -5.5 10.265625 -5.8125 10.265625 -6.4375 L 10.265625 -7.46875 C 10.265625 -7.78125 10.160156 -8.039062 9.953125 -8.25 C 9.742188 -8.457031 9.484375 -8.5625 9.171875 -8.5625 L 8.09375 -8.5625 Z M 8.09375 -14.046875 L 9.171875 -14.046875 C 9.484375 -14.046875 9.742188 -14.148438 9.953125 -14.359375 C 10.160156 -14.566406 10.265625 -14.828125 10.265625 -15.140625 L 10.265625 -29.765625 C 10.265625 -30.078125 10.160156 -30.335938 9.953125 -30.546875 C 9.742188 -30.753906 9.484375 -30.859375 9.171875 -30.859375 L 8.09375 -30.859375 Z M 8.09375 -14.046875 "/></g></g></g><g fill="#ffffff" fill-opacity="1"><g transform="translate(42.784566, 110.04255)"><g><path d="M 1.5625 0 L 1.5625 -36.296875 L 11.609375 -36.296875 C 13.066406 -36.296875 14.296875 -35.796875 15.296875 -34.796875 C 16.296875 -33.796875 16.796875 -32.566406 16.796875 -31.109375 L 16.796875 -15.609375 C 16.734375 -14.710938 16.441406 -13.898438 15.921875 -13.171875 C 15.398438 -12.441406 14.742188 -11.90625 13.953125 -11.5625 C 14.742188 -11.1875 15.398438 -10.644531 15.921875 -9.9375 C 16.441406 -9.226562 16.734375 -8.421875 16.796875 -7.515625 L 16.796875 0 L 10.265625 0 L 10.265625 -8.5625 L 8.09375 -8.5625 L 8.09375 0 Z M 8.09375 -14.046875 L 9.171875 -14.046875 C 9.484375 -14.046875 9.742188 -14.148438 9.953125 -14.359375 C 10.160156 -14.566406 10.265625 -14.828125 10.265625 -15.140625 L 10.265625 -29.765625 C 10.265625 -30.078125 10.160156 -30.335938 9.953125 -30.546875 C 9.742188 -30.753906 9.484375 -30.859375 9.171875 -30.859375 L 8.09375 -30.859375 Z M 8.09375 -14.046875 "/></g></g></g><g fill="#ffffff" fill-opacity="1"><g transform="translate(61.141816, 110.04255)"><g><path d="M 1.5625 0 L 1.5625 -36.296875 L 15.296875 -36.296875 L 15.296875 -30.796875 L 8.09375 -30.796875 L 8.09375 -19.546875 L 13.21875 -19.546875 L 13.21875 -14.046875 L 8.09375 -14.046875 L 8.09375 -5.5 L 15.296875 -5.5 L 15.296875 0 Z M 1.5625 0 "/></g></g></g><g fill="#ffffff" fill-opacity="1"><g transform="translate(77.217375, 110.04255)"><g><path d="M 4.609375 0 L 0.78125 -36.296875 L 7.3125 -36.296875 L 9.125 -11.71875 L 11 -36.296875 L 17.53125 -36.296875 L 13.640625 0 Z M 4.609375 0 "/></g></g></g><g fill="#ffffff" fill-opacity="1"><g transform="translate(95.522769, 110.04255)"><g><path d="M 1.5625 0 L 1.5625 -36.296875 L 15.296875 -36.296875 L 15.296875 -30.796875 L 8.09375 -30.796875 L 8.09375 -19.546875 L 13.21875 -19.546875 L 13.21875 -14.046875 L 8.09375 -14.046875 L 8.09375 -5.5 L 15.296875 -5.5 L 15.296875 0 Z M 1.5625 0 "/></g></g></g><g fill="#07b696" fill-opacity="1"><g transform="translate(111.601352, 110.04255)"><g><path d="M 2.390625 -9.171875 L 1.5625 -25.15625 L 1.5625 -36.40625 L 9.03125 -36.40625 L 9.03125 -25.15625 L 8.09375 -9.171875 Z M 1.921875 -1.140625 L 2.171875 -6.796875 L 8.40625 -6.796875 L 8.65625 -1.140625 L 8.40625 0 L 2.171875 0 Z M 1.921875 -1.140625 "/></g></g></g></svg>