<svg xmlns="http://www.w3.org/2000/svg" xmlns:xlink="http://www.w3.org/1999/xlink" width="140" zoomAndPan="magnify" viewBox="0 0 104.88 37.5" height="50" preserveAspectRatio="xMidYMid meet" version="1.0"><defs><g/></defs><g fill="#ffffff" fill-opacity="1"><g transform="translate(4.273901, 32.997174)"><g><path d="M 9.296875 0 L 9.296875 -10.671875 L 6.359375 -10.671875 L 6.359375 0 L 1.171875 0 L 1.171875 -26.8125 L 6.359375 -26.8125 L 6.359375 -15.421875 L 9.296875 -15.421875 L 9.296875 -26.8125 L 14.453125 -26.8125 L 14.453125 0 Z M 9.296875 0 "/></g></g></g><g fill="#ffffff" fill-opacity="1"><g transform="translate(18.687775, 32.997174)"><g><path d="M 13.453125 -5 C 13.453125 -4.113281 13.3125 -3.351562 13.03125 -2.71875 C 12.75 -2.082031 12.378906 -1.5625 11.921875 -1.15625 C 11.460938 -0.757812 10.9375 -0.46875 10.34375 -0.28125 C 9.757812 -0.09375 9.144531 0 8.5 0 L 1.171875 0 L 1.171875 -26.8125 L 8.5 -26.8125 C 9.144531 -26.8125 9.757812 -26.71875 10.34375 -26.53125 C 10.9375 -26.34375 11.460938 -26.046875 11.921875 -25.640625 C 12.378906 -25.242188 12.75 -24.726562 13.03125 -24.09375 C 13.3125 -23.46875 13.453125 -22.710938 13.453125 -21.828125 L 13.453125 -17.359375 C 13.453125 -16.546875 13.273438 -15.796875 12.921875 -15.109375 C 12.578125 -14.429688 11.9375 -13.945312 11 -13.65625 C 11.882812 -13.300781 12.515625 -12.804688 12.890625 -12.171875 C 13.265625 -11.546875 13.453125 -10.804688 13.453125 -9.953125 Z M 8.578125 -21.265625 C 8.578125 -21.710938 8.492188 -22.023438 8.328125 -22.203125 C 8.171875 -22.378906 7.945312 -22.46875 7.65625 -22.46875 L 6.359375 -22.46875 L 6.359375 -15.375 L 7.65625 -15.375 C 8.269531 -15.375 8.578125 -15.78125 8.578125 -16.59375 Z M 8.578125 -10.34375 C 8.578125 -11.15625 8.269531 -11.5625 7.65625 -11.5625 L 6.359375 -11.5625 L 6.359375 -4.3125 L 7.65625 -4.3125 C 7.945312 -4.3125 8.171875 -4.394531 8.328125 -4.5625 C 8.492188 -4.738281 8.578125 -5.054688 8.578125 -5.515625 Z M 8.578125 -10.34375 "/></g></g></g><path fill="#3498db" d="M 22.003906 15.679688 L 101.917969 15.679688 L 101.917969 24.515625 L 22.003906 24.515625 L 22.003906 15.679688 " fill-opacity="1" fill-rule="nonzero"/><g fill="#ffffff" fill-opacity="1"><g transform="translate(24.259122, 21.978993)"><g><path d="M 3.84375 -1.96875 C 3.84375 -1.570312 3.757812 -1.222656 3.59375 -0.921875 C 3.4375 -0.617188 3.210938 -0.390625 2.921875 -0.234375 C 2.640625 -0.078125 2.316406 0 1.953125 0 L 0.375 0 L 0.375 -3.875 L 1.78125 -3.875 C 2.4375 -3.875 2.941406 -3.707031 3.296875 -3.375 C 3.660156 -3.050781 3.84375 -2.582031 3.84375 -1.96875 Z M 3.015625 -1.96875 C 3.015625 -2.382812 2.90625 -2.703125 2.6875 -2.921875 C 2.476562 -3.140625 2.171875 -3.25 1.765625 -3.25 L 1.1875 -3.25 L 1.1875 -0.625 L 1.875 -0.625 C 2.226562 -0.625 2.503906 -0.742188 2.703125 -0.984375 C 2.910156 -1.222656 3.015625 -1.550781 3.015625 -1.96875 Z M 3.015625 -1.96875 "/></g></g></g><g fill="#ffffff" fill-opacity="1"><g transform="translate(32.84447, 21.978993)"><g><path d="M 0.375 0 L 0.375 -3.875 L 3.421875 -3.875 L 3.421875 -3.25 L 1.1875 -3.25 L 1.1875 -2.28125 L 3.265625 -2.28125 L 3.265625 -1.65625 L 1.1875 -1.65625 L 1.1875 -0.625 L 3.546875 -0.625 L 3.546875 0 Z M 0.375 0 "/></g></g></g><g fill="#ffffff" fill-opacity="1"><g transform="translate(41.118615, 21.978993)"><g><path d="M 2.296875 0 L 1.46875 0 L 0.03125 -3.875 L 0.890625 -3.875 L 1.6875 -1.390625 C 1.738281 -1.222656 1.804688 -0.976562 1.890625 -0.65625 L 1.953125 -0.890625 L 2.09375 -1.390625 L 2.890625 -3.875 L 3.71875 -3.875 Z M 2.296875 0 "/></g></g></g><g fill="#ffffff" fill-opacity="1"><g transform="translate(49.39276, 21.978993)"><g><path d="M 0.375 0 L 0.375 -3.875 L 3.421875 -3.875 L 3.421875 -3.25 L 1.1875 -3.25 L 1.1875 -2.28125 L 3.265625 -2.28125 L 3.265625 -1.65625 L 1.1875 -1.65625 L 1.1875 -0.625 L 3.546875 -0.625 L 3.546875 0 Z M 0.375 0 "/></g></g></g><g fill="#ffffff" fill-opacity="1"><g transform="translate(57.666904, 21.978993)"><g><path d="M 0.375 0 L 0.375 -3.875 L 1.1875 -3.875 L 1.1875 -0.625 L 3.265625 -0.625 L 3.265625 0 Z M 0.375 0 "/></g></g></g><g fill="#ffffff" fill-opacity="1"><g transform="translate(65.624337, 21.978993)"><g><path d="M 4.15625 -1.953125 C 4.15625 -1.554688 4.070312 -1.203125 3.90625 -0.890625 C 3.75 -0.585938 3.519531 -0.351562 3.21875 -0.1875 C 2.925781 -0.0195312 2.582031 0.0625 2.1875 0.0625 C 1.570312 0.0625 1.09375 -0.113281 0.75 -0.46875 C 0.40625 -0.832031 0.234375 -1.328125 0.234375 -1.953125 C 0.234375 -2.578125 0.40625 -3.0625 0.75 -3.40625 C 1.09375 -3.757812 1.570312 -3.9375 2.1875 -3.9375 C 2.800781 -3.9375 3.28125 -3.757812 3.625 -3.40625 C 3.976562 -3.050781 4.15625 -2.566406 4.15625 -1.953125 Z M 3.328125 -1.953125 C 3.328125 -2.378906 3.226562 -2.707031 3.03125 -2.9375 C 2.832031 -3.175781 2.550781 -3.296875 2.1875 -3.296875 C 1.820312 -3.296875 1.539062 -3.175781 1.34375 -2.9375 C 1.144531 -2.707031 1.046875 -2.378906 1.046875 -1.953125 C 1.046875 -1.523438 1.144531 -1.1875 1.34375 -0.9375 C 1.550781 -0.695312 1.832031 -0.578125 2.1875 -0.578125 C 2.550781 -0.578125 2.832031 -0.695312 3.03125 -0.9375 C 3.226562 -1.175781 3.328125 -1.515625 3.328125 -1.953125 Z M 3.328125 -1.953125 "/></g></g></g><g fill="#ffffff" fill-opacity="1"><g transform="translate(74.52364, 21.978993)"><g><path d="M 3.5625 -2.65625 C 3.5625 -2.40625 3.503906 -2.179688 3.390625 -1.984375 C 3.285156 -1.785156 3.125 -1.628906 2.90625 -1.515625 C 2.695312 -1.410156 2.445312 -1.359375 2.15625 -1.359375 L 1.1875 -1.359375 L 1.1875 0 L 0.375 0 L 0.375 -3.875 L 2.125 -3.875 C 2.582031 -3.875 2.9375 -3.765625 3.1875 -3.546875 C 3.4375 -3.335938 3.5625 -3.039062 3.5625 -2.65625 Z M 2.75 -2.640625 C 2.75 -3.046875 2.507812 -3.25 2.03125 -3.25 L 1.1875 -3.25 L 1.1875 -1.984375 L 2.046875 -1.984375 C 2.273438 -1.984375 2.445312 -2.039062 2.5625 -2.15625 C 2.6875 -2.269531 2.75 -2.429688 2.75 -2.640625 Z M 2.75 -2.640625 "/></g></g></g><g fill="#ffffff" fill-opacity="1"><g transform="translate(82.797784, 21.978993)"><g><path d="M 0.375 0 L 0.375 -3.875 L 3.421875 -3.875 L 3.421875 -3.25 L 1.1875 -3.25 L 1.1875 -2.28125 L 3.265625 -2.28125 L 3.265625 -1.65625 L 1.1875 -1.65625 L 1.1875 -0.625 L 3.546875 -0.625 L 3.546875 0 Z M 0.375 0 "/></g></g></g><g fill="#ffffff" fill-opacity="1"><g transform="translate(91.071931, 21.978993)"><g><path d="M 3.046875 0 L 2.140625 -1.46875 L 1.1875 -1.46875 L 1.1875 0 L 0.375 0 L 0.375 -3.875 L 2.3125 -3.875 C 2.78125 -3.875 3.140625 -3.773438 3.390625 -3.578125 C 3.640625 -3.378906 3.765625 -3.09375 3.765625 -2.71875 C 3.765625 -2.445312 3.6875 -2.210938 3.53125 -2.015625 C 3.375 -1.816406 3.164062 -1.6875 2.90625 -1.625 L 3.953125 0 Z M 2.953125 -2.6875 C 2.953125 -3.0625 2.710938 -3.25 2.234375 -3.25 L 1.1875 -3.25 L 1.1875 -2.109375 L 2.25 -2.109375 C 2.476562 -2.109375 2.648438 -2.15625 2.765625 -2.25 C 2.890625 -2.351562 2.953125 -2.5 2.953125 -2.6875 Z M 2.953125 -2.6875 "/></g></g></g></svg>